HIERARCHY
ROOT hip
{
	OFFSET	0.00  0.00  0.00 
	CHANNELS 6 Xposition Yposition Zposition Xrotation Zrotation Yrotation
	JOINT abdomen
	{
		OFFSET	0.000000 0.000000 0.000000
		CHANNELS 3 Xrotation Zrotation Yrotation
		JOINT chest
		{
			OFFSET	0.000000 5.018152 -1.882228
			CHANNELS 3 Xrotation Zrotation Yrotation
			JOINT neckDummy
			{
				OFFSET	0.000000 8.316447 0.784897
				CHANNELS 3 Xrotation Yrotation Zrotation
				JOINT neck
				{
					OFFSET	0.000000 2.280413 -0.392801
					CHANNELS 3 Xrotation Zrotation Yrotation
					JOINT head
					{
						OFFSET	0.000000 3.496879 0.529469
						CHANNELS 3 Xrotation Zrotation Yrotation
						JOINT figureHair
						{
							OFFSET	0.000000 4.699570 0.720622
							CHANNELS 3 Zrotation Yrotation Xrotation
							End Site
							{
								OFFSET 0.000000 -6.419331 0.000000
							}
						}
					}
				}
			}
			JOINT lCollar
			{
				OFFSET	0.599237 8.316447 0.784897
				CHANNELS 3 Yrotation Zrotation Xrotation
				JOINT lShldr
				{
					OFFSET	6.421198 0.010146 -0.332128
					CHANNELS 3 Zrotation Yrotation Xrotation
					JOINT lForeArm
					{
						OFFSET	10.552783 0.025574 0.125508
						CHANNELS 3 Yrotation Zrotation Xrotation
						JOINT lHand
						{
							OFFSET	11.035963 0.319619 0.041520
							CHANNELS 3 Zrotation Yrotation Xrotation
							End Site
							{
								OFFSET 10.353753 0.000000 0.000000
							}
						}
					}
				}
			}
			JOINT rCollar
			{
				OFFSET	-0.599237 8.316447 0.784897
				CHANNELS 3 Yrotation Zrotation Xrotation
				JOINT rShldr
				{
					OFFSET	-6.421198 0.010146 -0.332128
					CHANNELS 3 Zrotation Yrotation Xrotation
					JOINT rForeArm
					{
						OFFSET	-10.552783 0.025574 0.125508
						CHANNELS 3 Yrotation Zrotation Xrotation
						JOINT rHand
						{
							OFFSET	-11.035963 0.319619 0.041520
							CHANNELS 3 Zrotation Yrotation Xrotation
							End Site
							{
								OFFSET -10.353753 0.000000 0.000000
							}
						}
					}
				}
			}
		}
	}
	JOINT lThigh
	{
		OFFSET	4.500466 -6.400484 -1.832696
		CHANNELS 3 Xrotation Zrotation Yrotation
		JOINT lShin
		{
			OFFSET	-1.359117 -18.918689 1.179887
			CHANNELS 3 Xrotation Zrotation Yrotation
			JOINT lFoot
			{
				OFFSET	-0.652380 -17.215186 -0.312137
				CHANNELS 3 Xrotation Yrotation Zrotation
				End Site
				{
					OFFSET 0.000000 0.000000 10.353752
				}
			}
		}
	}
	JOINT rThigh
	{
		OFFSET	-4.500466 -6.400484 -1.832696
		CHANNELS 3 Xrotation Zrotation Yrotation
		JOINT rShin
		{
			OFFSET	1.359117 -18.918689 1.179887
			CHANNELS 3 Xrotation Zrotation Yrotation
			JOINT rFoot
			{
				OFFSET	0.652380 -17.215186 -0.312137
				CHANNELS 3 Xrotation Yrotation Zrotation
				End Site
				{
					OFFSET 0.000000 0.000000 10.353752
				}
			}
		}
	}
}
MOTION
Frames:     15
Frame Time: 0.066667
-15.440035 41.020000 3.910001 -168.212997 176.220993 -3.124360 17.304701 4.023440 3.564450 0.000000 0.000000 0.000000 0.000000 0.000000 0.000000 2.451170 6.728520 6.710130 0.000000 0.000000 0.000000 0.000000 0.000000 0.000000 0.000000 0.000000 0.000000 -71.310097 13.708400 58.291100 -13.487900 14.677000 -9.018260 3.687240 -1.931810 -34.834301 0.000000 0.000000 0.000000 70.900803 -20.313601 49.453499 30.162399 -31.391399 -3.272940 -10.444400 4.501480 -42.051300 -5.829463 9.959467 7.676083 38.410183 2.936033 -6.941134 -16.158588 2.378980 -6.010087 -18.779291 -9.023540 -8.718658 48.400307 0.894064 -3.947056 0.161930 -1.544273 6.603854 
-18.000000 40.949997 2.739996 -169.716995 -179.354996 -6.298830 19.609400 13.457000 1.056960 0.000000 0.000000 0.000000 0.000000 0.000000 0.000000 6.503910 -2.978520 15.985800 0.000000 0.000000 0.000000 0.000000 0.000000 0.000000 0.000000 0.000000 0.000000 -73.707298 10.991800 71.552902 -32.407600 29.577900 -6.504120 3.083890 -9.530930 -28.984900 0.000000 0.000000 0.000000 72.651299 -26.613501 36.900902 21.569700 -28.698000 -7.284080 -13.861500 2.454300 -45.491798 -10.615170 2.441761 7.912078 46.759327 2.589272 -5.802759 -20.065166 0.366920 -4.026818 -30.107901 -28.691948 -11.837243 62.579975 0.175211 1.881043 10.345532 15.263051 22.875765 
-19.649975 41.159992 2.099999 -179.179993 -172.061005 -4.474000 15.820300 23.310499 -1.763710 0.000000 0.000000 0.000000 0.000000 0.000000 0.000000 -5.771480 -16.552700 20.517599 0.000000 0.000000 0.000000 0.000000 0.000000 0.000000 0.000000 0.000000 0.000000 -73.279404 14.778800 71.099800 -61.161201 36.264999 13.121200 2.188920 -11.639200 -22.420000 0.000000 0.000000 0.000000 71.219803 -32.858398 29.100800 22.453199 -29.714399 -6.226210 -14.082700 0.656633 -43.522800 -16.649916 -4.159950 7.233621 35.267204 1.341609 -1.896262 -11.344828 -4.871790 -6.801868 -29.568661 -41.305962 -4.415961 40.131580 -3.443416 -0.934114 28.039234 7.619116 8.035002 
-18.349958 41.749996 3.570004 173.574005 -164.326004 2.175100 7.763670 21.357401 -7.056990 0.000000 0.000000 0.000000 0.000000 0.000000 0.000000 -18.632799 -20.527300 25.914499 0.000000 0.000000 0.000000 0.000000 0.000000 0.000000 0.000000 0.000000 0.000000 -69.271500 20.025400 64.987198 -67.738098 33.560501 20.169201 2.008040 -11.934300 -19.548000 0.000000 0.000000 0.000000 72.426102 -38.026699 27.853399 28.606800 -33.169800 -0.967599 -16.378000 0.873941 -38.434502 -17.966066 -10.487155 5.848530 19.277020 1.549393 1.390366 -1.767405 -12.208673 -11.886185 -22.324129 -46.249512 0.924031 20.671656 -3.733636 -1.821792 30.515499 5.543418 13.642206 
-14.690010 41.009998 4.460003 -11.748000 -21.747999 -171.703003 2.480470 13.486300 -9.734050 0.000000 0.000000 0.000000 0.000000 0.000000 0.000000 -26.152300 -20.517599 28.750000 0.000000 0.000000 0.000000 0.000000 0.000000 0.000000 0.000000 0.000000 0.000000 -62.028900 25.970100 60.772400 -74.990601 32.900799 24.082100 1.499450 -12.120700 -18.866301 0.000000 0.000000 0.000000 72.137604 -42.358200 31.786501 38.604900 -35.811199 9.389920 -17.889500 1.171850 -36.256100 -15.775777 -10.495239 4.424022 3.586206 -0.184934 2.479586 7.641314 -22.254902 -21.227085 -27.138798 -50.077736 3.492469 27.921492 -4.543560 0.479349 10.881476 0.778690 25.716431 
-9.569995 39.479992 4.849997 -11.015600 -22.509800 -167.054993 5.957030 3.496090 -6.943360 0.000000 0.000000 0.000000 0.000000 0.000000 0.000000 -19.316401 -23.037100 22.691500 0.000000 0.000000 0.000000 0.000000 0.000000 0.000000 0.000000 0.000000 0.000000 -57.552299 27.766500 56.806599 -79.859200 35.090401 26.080200 3.158870 -12.907700 -21.337200 0.000000 0.000000 0.000000 75.613403 -30.174400 40.486900 23.776300 -30.049000 -6.780660 -19.343500 0.033959 -37.872601 -19.539667 -2.851193 3.326173 8.152765 -0.313743 -1.906846 8.812094 -29.520149 -30.395506 -28.324736 -44.515347 4.166242 42.446060 -5.054561 6.099275 -13.977075 -4.193944 22.366308 
-4.140000 38.599995 5.259996 175.078003 -161.992004 7.672760 13.320300 -7.041020 -3.214090 0.000000 0.000000 0.000000 0.000000 0.000000 0.000000 -4.277340 -15.175800 19.636101 0.000000 0.000000 0.000000 0.000000 0.000000 0.000000 0.000000 0.000000 0.000000 -62.229900 33.858299 46.551201 -83.707397 41.306599 28.663300 6.853730 -12.438200 -22.449800 0.000000 0.000000 0.000000 77.113899 -11.993100 56.491402 13.884800 -25.289101 -17.049200 -13.849600 1.257470 -36.521999 -27.482754 8.474244 1.229395 33.878342 0.382782 -4.898650 6.820341 -22.067423 -25.472950 -30.348293 -29.948368 2.441006 54.251663 -5.319324 7.443970 -22.064537 -5.099061 10.450535 
-0.290000 38.729996 5.929997 -178.848007 -170.712997 1.044920 19.570299 -12.421900 -0.910303 0.000000 0.000000 0.000000 0.000000 0.000000 0.000000 -3.496090 -0.634766 22.802700 0.000000 0.000000 0.000000 0.000000 0.000000 0.000000 0.000000 0.000000 0.000000 -61.493198 39.524601 43.871899 -89.072304 44.710701 32.894699 11.977300 -9.938110 -23.966600 0.000000 0.000000 0.000000 76.066200 -8.072640 51.229198 28.694401 -35.324001 -1.280120 -6.104680 5.997830 -30.382601 -29.055376 16.920042 -0.881235 56.607220 3.355697 -7.872632 -0.295101 -22.400848 -26.746786 -26.301632 -14.810562 -2.468173 54.909008 -4.844821 7.216768 -22.020973 -2.614675 5.272772 
1.229995 40.289997 6.819996 -178.104996 -179.209000 1.162110 21.357401 -8.320310 -0.372507 0.000000 0.000000 0.000000 0.000000 0.000000 0.000000 -9.414060 8.388670 21.923800 0.000000 0.000000 0.000000 0.000000 0.000000 0.000000 0.000000 0.000000 0.000000 -62.576099 38.655602 47.780102 -82.911400 45.324402 28.222099 13.440300 -7.071950 -25.931499 0.000000 0.000000 0.000000 71.842003 -9.888930 47.740700 34.974499 -39.653999 2.643520 -5.550380 4.961260 -28.484600 -25.724962 19.408922 -1.535785 54.131844 4.107402 -10.201431 -7.783254 -19.403040 -27.601862 -20.079506 -3.582531 -4.322303 42.740879 -2.063339 6.046845 -14.258732 -4.061891 2.675362 
0.680000 41.919994 7.260000 -179.091995 176.776993 0.732971 17.890600 -4.462890 1.083220 0.000000 0.000000 0.000000 0.000000 0.000000 0.000000 -14.931600 12.793000 18.674000 0.000000 0.000000 0.000000 0.000000 0.000000 0.000000 0.000000 0.000000 0.000000 -66.049202 35.767101 51.408501 -66.788200 41.552601 18.722401 10.996400 -7.398400 -22.918600 0.000000 0.000000 0.000000 72.465401 -14.258600 39.929798 36.773899 -38.807400 5.850280 -7.121810 -0.635539 -26.778999 -17.797163 14.908139 -3.644826 37.522980 3.491813 -11.887547 -8.575014 -12.556612 -19.196693 -14.117646 -0.400473 -3.420968 27.955778 -0.303716 4.158164 -6.089914 -2.423584 4.314630 
-0.480000 40.699997 7.429998 -169.647995 178.438004 -1.923830 17.148399 0.820313 3.505860 0.000000 0.000000 0.000000 0.000000 0.000000 0.000000 1.015630 11.171900 11.037000 0.000000 0.000000 0.000000 0.000000 0.000000 0.000000 0.000000 0.000000 0.000000 -68.309898 19.015301 57.095299 -22.225500 21.064400 -9.590240 6.223560 -3.419060 -38.014900 0.000000 0.000000 0.000000 76.147102 -20.091600 45.369801 30.233801 -34.722599 -5.347530 -11.063400 2.704390 -43.198700 -7.913982 5.834979 3.097607 42.925545 4.263989 -7.853651 -17.936127 -0.921140 -7.283933 -20.894543 -11.110414 -10.053565 51.313179 1.190735 -4.143244 -0.730818 -2.020433 6.403397 
-1.839997 40.709999 8.029997 -169.843994 -179.141006 -6.172020 19.599600 13.154300 1.044920 0.000000 0.000000 0.000000 0.000000 0.000000 0.000000 6.357420 -2.568360 16.425800 0.000000 0.000000 0.000000 0.000000 0.000000 0.000000 0.000000 0.000000 0.000000 -73.360901 11.464000 71.418503 -33.342098 30.154400 -6.340600 3.335530 -9.694140 -29.300501 0.000000 0.000000 0.000000 73.174500 -26.547600 36.484299 21.552099 -28.989700 -7.515950 -13.911700 2.280370 -45.589401 -10.786504 2.039335 7.520956 47.178036 2.729938 -5.887210 -20.214828 0.033590 -4.144357 -30.278898 -28.900118 -11.915114 62.835075 0.195400 1.867718 10.260783 15.189291 22.884844 
-2.789995 41.059998 8.909994 -179.179993 -172.061005 -4.474000 15.820300 23.310499 -1.763710 0.000000 0.000000 0.000000 0.000000 0.000000 0.000000 -5.771480 -16.552700 20.517599 0.000000 0.000000 0.000000 0.000000 0.000000 0.000000 0.000000 0.000000 0.000000 -73.279404 14.778800 71.099800 -61.161201 36.264999 13.121200 2.188920 -11.639200 -22.420000 0.000000 0.000000 0.000000 71.219803 -32.858398 29.100800 22.453199 -29.714399 -6.226210 -14.082700 0.656633 -43.522800 -16.649914 -4.159954 7.233621 35.267204 1.341617 -1.896260 -11.344828 -4.871791 -6.801868 -29.568661 -41.305962 -4.415968 40.131580 -3.443416 -0.934115 28.039232 7.619121 8.034999 
-1.489998 41.709995 10.390001 173.574005 -164.326004 2.175100 7.763670 21.357401 -7.056990 0.000000 0.000000 0.000000 0.000000 0.000000 0.000000 -18.632799 -20.527300 25.914499 0.000000 0.000000 0.000000 0.000000 0.000000 0.000000 0.000000 0.000000 0.000000 -69.271500 20.025400 64.987198 -67.738098 33.560501 20.169201 2.008040 -11.934300 -19.548000 0.000000 0.000000 0.000000 72.426102 -38.026699 27.853399 28.606800 -33.169800 -0.967599 -16.378000 0.873941 -38.434502 -17.966066 -10.487155 5.848530 19.277020 1.549399 1.390367 -1.767405 -12.208672 -11.886186 -22.324137 -46.249512 0.924030 20.671656 -3.733633 -1.821792 30.515499 5.543419 13.642206 
2.170002 40.989994 11.280041 -11.748000 -21.747999 -171.703003 2.480470 13.486300 -9.734050 0.000000 0.000000 0.000000 0.000000 0.000000 0.000000 -26.152300 -20.517599 28.750000 0.000000 0.000000 0.000000 0.000000 0.000000 0.000000 0.000000 0.000000 0.000000 -62.028900 25.970100 60.772400 -74.990601 32.900799 24.082100 1.499450 -12.120700 -18.866301 0.000000 0.000000 0.000000 72.137604 -42.358200 31.786501 38.604900 -35.811199 9.389920 -17.889500 1.171850 -36.256100 -15.775777 -10.495239 4.424022 3.586206 -0.184935 2.479586 7.641314 -22.254902 -21.227085 -27.138800 -50.077736 3.492467 27.921492 -4.543561 0.479348 10.881475 0.778691 25.716431 
